<svg xmlns="http://www.w3.org/2000/svg" width="245.741" height="301.471" viewBox="0 0 245.741 301.471">
  <path id="Subtraction_192" data-name="Subtraction 192" d="M57.36,300a18.3,18.3,0,0,1-5.04-.893,3.256,3.256,0,0,1-2.551-3.253c.083-4.963.175-9.442.462-14,.052-.842.928-1.716,1.632-2.419l.04-.04c9.1-9.1,18.513-18.475,26.818-26.747l.07-.07.04-.04.686-.683.1-.1.067-.067.624-.622.058-.059.336-.333,6.847-6.82c.186-.186.367-.385.537-.572l.034-.037.007-.008.019-.021a7.949,7.949,0,0,1,1.314-1.247,13.417,13.417,0,0,0,4.728-5.918,38.783,38.783,0,0,0,2.044-7.209l0-.012,0-.013,0-.014,0-.017.066-.3.065-.3c.2-.918.434-1.895.591-2.541l.006-.026.02-.082,0-.009L97,225.5c.423-1.755.86-3.57,1.114-5.387a15.326,15.326,0,0,0-.063-3.552l0-.032,0-.02,0-.034c-.041-.437-.092-.981-.117-1.49-.243,0-.426-.008-.547-.013h-.056c-.075,0-.125-.005-.163-.005-.074,0-.109.008-.124.03a4.755,4.755,0,0,1-4.284,1.874c-.456,0-.954-.024-1.252-.038l-.048,0h-.013l-.125-.005c-.277-.013-.5-.022-.691-.027-19.075-.549-37.677-1.061-56.641-1.58l-.487-.014-1.346-.037-.118,0-.269-.007-.743-.021-4.913-.135-.139,0-.188,0-4.454-.122L19.13,214.8H19.1l-2.2-.061-.176,0-2.424-.067-2.426-.067c-.077,0-.194-.006-.333-.013v.045H6a6,6,0,0,1-5.5-3.609l-.111-.012v-.26A5.963,5.963,0,0,1,0,208.634V186.159H1.453l5.473-2.436V170H7.7V159l2.261-5.167L12.314,159V170h.769v10.985l10.775-4.8V160.761h.769V149.766l2.261-5.168,2.357,5.168v10.994h.769v12.682l27.707-12.336V144.6h.77V133.6l2.261-5.168,2.357,5.168V144.6h.769v13.766l10.775-4.8V136.9h.77v-11l2.261-5.167,2.357,5.167v11h.77v13.924l15.2-6.767-.238-.536a3.66,3.66,0,0,0,.328-1.256c.2-1.888.367-3.807.531-5.662l0-.025.005-.061.006-.073,0-.024v-.012l0-.045.005-.058v-.013l0-.014v-.021a136.242,136.242,0,0,1,2.033-15.908c1.161-5.543,2.7-11.065,4.186-16.4l.008-.03.006-.022,0-.013.014-.05.006-.022,0-.011c1.107-3.971,2.251-8.076,3.244-12.218a142.357,142.357,0,0,0,2.659-16.265,26.953,26.953,0,0,1,3.149-10.385,23.928,23.928,0,0,0,3.474-12.683c-.059-2.5.047-4.984.149-7.39v-.03l0-.028v-.05a82.838,82.838,0,0,0,.013-10.164,31.233,31.233,0,0,1,.37-6.6V27.97l0-.025c.177-1.376.36-2.8.41-4.241a47.846,47.846,0,0,1,1.627-10.613,78.571,78.571,0,0,1,3.512-10.16,16.046,16.046,0,0,1,.922-1.78l.012-.021.009-.016c.179-.311.389-.68.624-1.114,2.8,4.222,5.182,8.082,6.1,12.572.586,2.888,1.12,5.809,1.59,8.386l0,.006,0,.012.014.08v.005l.005.028.005.036.1.552,0,.017.085.466c.111.608.225,1.228.341,1.852a50.5,50.5,0,0,1,.511,7.823,7.232,7.232,0,0,0-.072,1.293q.009.4.019.805c-.01.225-.018.348-.018.348l.027.014c.049,2,.1,3.987.166,6.191l.005.188v.01l.016.567,0,.095,0,.067,0,.07v.009l0,.073,0,.156v.005l0,.15v.005l.005.194,0,.084c.118,4.221.252,9,.321,13.632a9.7,9.7,0,0,0,2.242,6.536,17.764,17.764,0,0,1,3.221,5.494,24.563,24.563,0,0,1,1.363,6.271v.012l0,.011v.016a137.135,137.135,0,0,0,2.263,16.493,82.932,82.932,0,0,0,2.66,8.825l.007.02.016.046,0,.012,0,.006.007.022c.716,2.089,1.457,4.249,2.063,6.454a129.1,129.1,0,0,1,3.48,16.411,90.7,90.7,0,0,1,.865,16.765c-.086,1.979-.1,2.879.391,3.485l-.275,1.054,14.038,6.25V136.9h.77v-11l2.357-5.167,2.261,5.167v11h.77v15.811l10.775,4.8V144.6h.77V133.6l2.357-5.168,2.261,5.168V144.6h.77v15.654l27.706,12.336V160.761h.77V149.766l2.357-5.168,2.261,5.168v10.994h.77V175.33l10.775,4.8V170h.769V159l2.357-5.167L237.813,159V170h.77v12.873l5.663,2.521h.495v19.24a4.623,4.623,0,0,1-4.618,4.618l-7.151.3c-1.952.151-3.971.309-6,.468l-.537.042-.214.016-.435.034c-2.666.21-4.968.388-7.038.544-8.5.643-17.248,1.3-23.635,1.78l-.823.062-.028,0-3.989.3-.52.039-.078.006q-8.733.655-17.465,1.313c-1.851.139-3.966.3-6.152.471l-.035,0h-.005l-.169.014-.169.013h-.006c-4.106.318-9.216.715-14.152,1.044-.917.061-1.409.235-1.648.581s-.226.894.056,1.818c1.165,3.815,2.35,7.862,3.215,10.817l.048.164.041.141.008.026v.005l0,.006,0,.006.011.036,0,.006c1.108,3.785,2.363,8.074,3.678,12.343a7.982,7.982,0,0,0,2.266,3.216c9.948,9.539,21.51,20.608,32.842,31.258a6.526,6.526,0,0,1,2.317,5.337c-.056,2.261-.041,4.486-.027,6.638v.145l0,.2v.23c.009,1.408.016,2.783,0,4.127a5.829,5.829,0,0,1-1.484,3.786,7.5,7.5,0,0,1-3.5,2.247,7.985,7.985,0,0,1-2.324.349c-2.2,0-4.128-.922-6.169-1.9l-.272-.129-.3-.144c-5.44-2.576-10.972-5.03-16.322-7.4l-.087-.039-.041-.018-.053-.024c-1.684-.746-3.916-1.735-6.25-2.78-1.7-.759-3.405-1.515-4.543-2.018l-.021-.009-.1-.045-.012,0-.052-.023c-2.578-1.141-5.5-2.433-8.406-3.772l-3.389-1.091a1.29,1.29,0,0,0-.658.7l-.287-.053v5.778a7.7,7.7,0,1,1-15.393,0v-8.635l-1.363-.253a2.344,2.344,0,0,0-.625-.649l-.009-.006-.009-.008-.006,0-.021-.017a4.683,4.683,0,0,1-.375-.33,4.526,4.526,0,0,1-.371.344l-.016.014-.009.008c-.281.241-.572.49-.588.729l-1.226.275v8.535a7.7,7.7,0,1,1-15.393,0v-5.083l-1.4.313q-.057-.223-.111-.438l-.085-.338-.014-.058,0-.007,0-.01,0,0-.019-.076c-.01-.042-.021-.083-.031-.124l-.032-.128-2.845.924a1.488,1.488,0,0,1-.436.327c-11.9,5.514-24.577,11.32-38.754,17.75A8.495,8.495,0,0,1,57.36,300Z" transform="translate(0.5 0.971)" stroke="rgba(0,0,0,0)" stroke-miterlimit="10" stroke-width="1"/>
</svg>
