<svg xmlns="http://www.w3.org/2000/svg" width="300.998" height="109.971" viewBox="0 0 300.998 109.971">
  <path id="Subtraction_179" data-name="Subtraction 179" d="M64.662,108.971h-.011a5.886,5.886,0,0,1-2-.34,2.783,2.783,0,0,0-.963-.14c-.275,0-.569.022-.8.039-.117.01-.241.018-.392.027-.529.03-1.07.086-1.548.136l-.036,0c-.661.068-1.344.138-2.017.153-.36.008-.711.012-1.071.012-.964,0-1.945-.027-2.893-.053H52.9l-.082,0-.756-.02a12.963,12.963,0,0,1-1.3-.121l-.21-.026c-.333-.042-.681-.1-.961-.146a11.935,11.935,0,0,0-1.931-.214h-.074a6.424,6.424,0,0,1-4.065-1.578,2.1,2.1,0,0,0-1.3-.567,1.716,1.716,0,0,0-.857.255,1.82,1.82,0,0,1-.92.25,3.934,3.934,0,0,1-1.694-.551c-.117-.059-.23-.114-.341-.168-.511-.244-1.006-.54-1.486-.827l-.015-.009c-.3-.181-.679-.407-1.043-.6a1.5,1.5,0,0,0-.681-.176,1.171,1.171,0,0,0-.127.008,4.67,4.67,0,0,1-.549.034,4.363,4.363,0,0,1-2.719-.963,6.534,6.534,0,0,0-3.716-1.211,8.557,8.557,0,0,1-2.121-.5c-1.676-.571-3.3-1.185-4.675-1.71a1.513,1.513,0,0,1-.784-.575,1.169,1.169,0,0,0-1.1-.785,2.053,2.053,0,0,0-.666.127,2.284,2.284,0,0,1-.75.136,2.2,2.2,0,0,1-1.249-.427,1.876,1.876,0,0,0-.584-.222,2.814,2.814,0,0,1-.444-.139c-.254-.113-.506-.239-.749-.361l-.05-.025c-.285-.143-.607-.306-.927-.442-.1-.042-.2-.091-.3-.138l-.042-.019a2.756,2.756,0,0,0-1.085-.349.893.893,0,0,0-.11.007,4.6,4.6,0,0,1-.541.033,3.945,3.945,0,0,1-1.985-.53c-.177-.1-.361-.194-.539-.285l-.031-.016A3.614,3.614,0,0,1,7.305,94.1c-.12-.309-.851-.524-1.322-.541A2.079,2.079,0,0,1,3.93,92.118L3.9,92.042A7.7,7.7,0,0,1,3.107,89.3a1.889,1.889,0,0,0-.511-.94c-.047-.059-.093-.117-.135-.172a1.385,1.385,0,0,0-.324-.27.932.932,0,0,1-.36-.343c-.187-.422-.412-.853-.61-1.234A7.427,7.427,0,0,1,0,82.606,1.781,1.781,0,0,1,.9,81.084a1.148,1.148,0,0,0,.551-.918.763.763,0,0,0-.366-.639C-.326,78.6-.045,77.275.2,76.1l.049-.237a3.749,3.749,0,0,1,1.789-2.942c.275-.14.407-.643.512-1.047l0-.015.028-.108c.081-.308.135-.629.188-.94l0-.022a8.8,8.8,0,0,1,.248-1.165,2.191,2.191,0,0,0-.493-2.56,1.894,1.894,0,0,1-.516-2.184,13.551,13.551,0,0,1,1.622-2.848,10.362,10.362,0,0,1,2.94-2.419c.508-.322,1.033-.656,1.516-1.022a21.856,21.856,0,0,1,3.833-2.171l.009,0,.008,0A29.009,29.009,0,0,0,14.821,54.9a2.709,2.709,0,0,0,1.118-1.39,16.946,16.946,0,0,0,.535-3.24c.083-.925.447-1.366,1.216-1.473.483-.067.977-.14,1.453-.209l.379-.055.013,0,.059-.009c1.628-.238,3.311-.483,4.971-.652,1.464-.149,2.956-.255,4.4-.357l.119-.008.069,0c1.159-.081,2.357-.166,3.532-.272A3.714,3.714,0,0,0,34.929,46.2a4.681,4.681,0,0,1,2.5-1.06c3.107-.36,6.245-.643,9.279-.916L49.153,44c3.922-.359,6.987-.633,10.15-.893.167-.013.311-.02.44-.02a1.542,1.542,0,0,1,1.715,1.272,1.074,1.074,0,0,0,1.095.729,1.375,1.375,0,0,0,.911-.338,13.222,13.222,0,0,0,1.947-2.216.661.661,0,0,0,.033-.708,1.12,1.12,0,0,0-.983-.583h-.008l-1.087.008-.536,0c-6.842.046-13.914.093-20.883.158h-.212a11.911,11.911,0,0,1-5.84-1.276c-1.723-.911-3.559-1.678-5.334-2.419-.6-.249-1.236-.516-1.867-.787-.386-.166-.779-.339-1.159-.506l-.233-.1c-1.469-.648-2.987-1.317-4.532-1.829a13.8,13.8,0,0,1-3.443-1.9c-.406-.279-.772-.529-1.15-.77l-.112-.071a4.667,4.667,0,0,0-1-.532c-1.246-.416-1.488-.617-1.468-1.987.024-1.587.087-3.2.148-4.753v-.013q.031-.8.061-1.592c.026-.735.538-1,1.079-1.288l.074-.039.146-.079c.4-.222.8-.47,1.179-.71l.019-.012.117-.073c.244-.152.5-.31.748-.457.119-.07.242-.154.358-.234a1.892,1.892,0,0,1,.933-.434H20.5c.105.007.213.01.319.01,1.794,0,3.175-.985,4.511-1.937l.043-.031c.083-.06.167-.12.251-.179a5.072,5.072,0,0,1,3-.987c1.386,0,1.771-.36,1.87-1.728.017-.245.02-.495.022-.736s0-.473.02-.705c.057-.913.493-1.38,1.3-1.388.995-.01,2.3-.022,3.574-.022,1.913,0,3.5.025,5,.08,1.29.046,1.648.48,1.917,2.321.123.844.527,1,1.229,1h.008c3.741-.005,6.969-.008,9.869-.008,5.3,0,9.593.009,13.5.03a5.4,5.4,0,0,1,2,.544l.392.165.014.006a9.247,9.247,0,0,1,2.341,1.251,2.473,2.473,0,0,0,1.551.676,2.171,2.171,0,0,0,1.581-.832c.179-.194.377-.4.623-.644a19.447,19.447,0,0,1,37.874-2.458,1.508,1.508,0,0,0,.394.265,9.425,9.425,0,0,0,2.01.651,52.807,52.807,0,0,0,9.72,1.157c.356,0,.71-.007,1.052-.02,3.507-.129,7.071-.21,10.517-.287l.1,0h.017c1.232-.027,2.628-.058,3.967-.091.7-.018,1.423-.026,2.1-.034h.115c.471-.006.959-.012,1.436-.022a1.87,1.87,0,0,0,1.467-.447,1.823,1.823,0,0,0,.168-1.492,3.6,3.6,0,0,1,.65-2.685,3.341,3.341,0,0,1,2.2-1.387,2.372,2.372,0,0,1,.364-.027,2.048,2.048,0,0,1,2.025,1.341,11.4,11.4,0,0,1,.542,2.972,2.821,2.821,0,0,0,1.414,2.507,28.865,28.865,0,0,1,3.872,2.861,5.028,5.028,0,0,0,3.6,1.4h.091c1.412-.018,2.946-.039,4.825-.067,4.165-.062,7.916-.114,11.655-.124,4.278-.011,8.923-.015,15.063-.015q5.1,0,10.206,0H206.8l6.743,0v-.053H236.3c8.468,0,14.393,0,19.812,0,3.377,0,6.693-.031,9.854-.084a15.719,15.719,0,0,0,2.3-.266l.145-.024a3.426,3.426,0,0,0,1.213-.42V17.012h12.151v1.215h8.506V17.012h7.291v2.43H300v9.721h-2.43v2.43h-7.291V30.378h-8.506v1.215H269.621V28.282a3.29,3.29,0,0,0-1.761-.429h-.055l-1.217.013-.456,0c-7.969.087-16.209.177-24.312.3-4.991.079-10.05.174-14.943.266h-.136c-5.248.1-10.674.2-16.087.284-10.374.16-20.556.281-32.789.422-5.56.064-11.561.111-18.347.142a5.737,5.737,0,0,0-2.974,1.1l-.06.035-.466.282-.128.078a9.34,9.34,0,0,1-4.917,1.829c-.128,0-.253,0-.37-.011-.934-.057-1.961-.084-3.139-.084-1.094,0-2.249.024-3.177.044l-.091,0c-.962.019-1.957.039-2.934.041h-.052c-.442,0-.892-.013-1.326-.026l-.057,0h-.053l-.065,0c-.4-.011-.818-.023-1.227-.023-.219,0-.419,0-.614.01a4.013,4.013,0,0,0-1.541.378c-.286.137-.444.312-.456.509s.132.4.407.579c.82.522,1.619,1.059,2.5,1.657a40.229,40.229,0,0,0,6.965,4.05,6.841,6.841,0,0,1,1.559,1.027c.11.088.219.175.328.259a4.021,4.021,0,0,0,2.629.822c.116,0,.21,0,.3-.005,2.347-.09,4.738-.092,7.051-.094h.094c.69,0,1.4,0,2.1,0l1.126,0q.967,0,1.933,0c2.582.22,11.877,1.1,23.065,3.132l.6.223a5.854,5.854,0,0,1,1.191.607,1.986,1.986,0,0,0,1.087.388,1.424,1.424,0,0,0,1.028-.473c10.812,2.161,19.789,4.8,26.682,7.837,8.9,3.923,14.24,8.5,15.878,13.6l.036-.038.039-.039a.75.75,0,0,0,.139.338,1.832,1.832,0,0,1,.273,2.18.79.79,0,0,0-.025.67,1.128,1.128,0,0,0,.719.574A2.184,2.184,0,0,1,235,72.091c.1.237.2.476.3.708l.023.054a14.275,14.275,0,0,1,.616,1.59,3.889,3.889,0,0,1-.469,3.493.827.827,0,0,0-.186.626.725.725,0,0,0,.364.454c.893.559.868,1.39.75,2.338-.018.141-.034.283-.05.427l0,.027a8.638,8.638,0,0,1-.33,1.792,4.133,4.133,0,0,1-1.026,1.67,1.647,1.647,0,0,0-.721,1.428,2.975,2.975,0,0,1-.8,2.253c-.235.281-.46.574-.676.858-.323.421-.656.857-1.021,1.252a3.181,3.181,0,0,1-1.183.769,2.016,2.016,0,0,0-1.29,1.229,3.816,3.816,0,0,1-3.728,2.65c-.148,0-.3-.007-.453-.02-.174-.015-.346-.022-.51-.022a6.255,6.255,0,0,0-3,.8,3.407,3.407,0,0,1-1.61.458,2.825,2.825,0,0,1-1.226-.291.746.746,0,0,0-.314-.058,1.715,1.715,0,0,0-.978.33,5.421,5.421,0,0,1-3.458,1.591,4.116,4.116,0,0,1-.514-.034,1.2,1.2,0,0,0-.156-.01,1.408,1.408,0,0,0-.818.247,6.725,6.725,0,0,1-3.061,1.121,14.271,14.271,0,0,0-1.493.338,11.607,11.607,0,0,0-1.681.717l-.01,0c-.351.173-.75.369-1.153.531l-.162.066a5.4,5.4,0,0,1-1.825.509,10.68,10.68,0,0,0-3.718.729,5.951,5.951,0,0,1-1.273.29l-.014,0a7.472,7.472,0,0,0-1.024.2,11.912,11.912,0,0,0-1.293.5l-.007,0-.026.011c-.3.13-.61.264-.923.377-.525.191-1.066.365-1.589.533l-.056.018c-.33.106-.7.225-1.057.344s-.709.244-1.1.384c-.655.233-1.332.473-2.012.671-.489.143-1,.248-1.492.349l-.052.011c-.332.067-.705.143-1.06.23-.857.209-1.5.389-2.084.584a7.625,7.625,0,0,0-.763.316,4.385,4.385,0,0,1-1.274.432c-.155.019-.312.038-.468.059h-.008a10.9,10.9,0,0,1-1.411.124,3.593,3.593,0,0,1-1.754-.406.43.43,0,0,0-.208-.046,2.367,2.367,0,0,0-.74.2l-.033.012c-.137.052-.279.105-.406.14-.163.044-.327.1-.486.162l-.017.006a2.983,2.983,0,0,1-.974.239H175.7a7.987,7.987,0,0,1-3.746-.745,1.393,1.393,0,0,0-.63-.128,1.951,1.951,0,0,0-.808.166,3.819,3.819,0,0,1-1.66.4,3.755,3.755,0,0,1-1.537-.341,3.324,3.324,0,0,0-1.36-.307,3.539,3.539,0,0,0-1.635.436,3.627,3.627,0,0,1-1.67.418,3.983,3.983,0,0,1-1.9-.513,1.484,1.484,0,0,0-.686-.148,1.715,1.715,0,0,0-.6.1,7.038,7.038,0,0,1-2.565.456h-.015a10.973,10.973,0,0,1-2.021-.207,3.788,3.788,0,0,0-.682-.067,2.575,2.575,0,0,0-.5.046,14.168,14.168,0,0,1-2.73.264,16.272,16.272,0,0,1-3-.289.868.868,0,0,0-.163-.014,2.408,2.408,0,0,0-.629.12l-.027.007a3.033,3.033,0,0,1-.5.11c-.155.017-.31.036-.462.054l-.056.007-.037,0a11.083,11.083,0,0,1-1.324.108c-.156,0-.3-.007-.454-.022-.224-.022-.454-.03-.677-.037l-.052,0a3.456,3.456,0,0,1-2.2-.573.357.357,0,0,0-.221-.056,1.512,1.512,0,0,0-.72.218,4.228,4.228,0,0,1-2.376.579c-.274,0-.561-.011-.792-.02l-.138-.005-.235-.008a1.726,1.726,0,0,1-.927-.515,2.154,2.154,0,0,0-1.369-.711,1.541,1.541,0,0,0-1.029.484,3.244,3.244,0,0,1-2.248.906,7.519,7.519,0,0,1-2.515-.6,3.942,3.942,0,0,0-1.332-.3,2.487,2.487,0,0,0-1.264.37,4.065,4.065,0,0,1-2.045.512,6.368,6.368,0,0,1-2-.349,5.915,5.915,0,0,0-1.873-.336,4.78,4.78,0,0,0-1.978.439,4.521,4.521,0,0,1-1.846.393,5.026,5.026,0,0,1-1.96-.411,3.307,3.307,0,0,0-1.315-.256,8.633,8.633,0,0,0-1.507.179l-.124.022a10.935,10.935,0,0,1-1.911.231,3.7,3.7,0,0,1-.873-.094,9.132,9.132,0,0,0-2.138-.233,24.648,24.648,0,0,0-2.549.177h-.009l-.109.012a7.916,7.916,0,0,1-.826.049,3.461,3.461,0,0,1-1.951-.521,1.356,1.356,0,0,0-.746-.23,2.461,2.461,0,0,0-1.086.336,4.908,4.908,0,0,1-1.153.363l-.085.02c-.111.026-.226.052-.336.081a.377.377,0,0,1-.091.01c-.031,0-.062,0-.092-.006l-.021,0-.027,0c-.03,0-.059-.005-.087-.005a.327.327,0,0,0-.1.015,3.484,3.484,0,0,1-1.13.211,2.313,2.313,0,0,1-1.973-1.157.68.68,0,0,0-.576-.316,1.059,1.059,0,0,0-.771.388,2.87,2.87,0,0,1-2.348,1.065,9.3,9.3,0,0,1-1.882-.265l-.015,0-.009,0a5.594,5.594,0,0,0-1.168-.118,12.245,12.245,0,0,0-2.2.263l-.019,0-.04.008a5.619,5.619,0,0,1-1.021.077c-.186,0-.376,0-.544-.009-.187-.005-.347-.008-.491-.009-.288,0-.584-.023-.87-.044H82.28c-.3-.021-.609-.044-.909-.044a4.226,4.226,0,0,0-.774.063,11.157,11.157,0,0,1-1.991.234,4.206,4.206,0,0,1-2.351-.655.717.717,0,0,0-.394-.093,3.642,3.642,0,0,0-.594.072l-.015,0c-.157.028-.309.055-.447.067-.557.047-1.121.1-1.665.145l-.447.04-.024,0h-.019l-.109.01c-.6.054-1.22.109-1.83.161h-.038a.617.617,0,0,1-.291-.075,2.578,2.578,0,0,0-1.342-.374,5.39,5.39,0,0,0-1.634.332A8.881,8.881,0,0,1,64.662,108.971Zm58.659-7.68a.053.053,0,0,0-.022,0,3.7,3.7,0,0,0-.867.609l-.023.02c-.1.083-.2.169-.3.25l.5.491.063.062.006.006.027.026.335.328c.091-.107.185-.215.3-.34l0-.005a5.222,5.222,0,0,0,.662-.86c0-.006,0-.017-.012-.037C123.9,101.7,123.466,101.291,123.322,101.291Zm-16.837-.437c-.093.058-.2.109-.3.159l-.035.017c-.232.113-.451.219-.474.355a1.433,1.433,0,0,0,.273,1.052,1.942,1.942,0,0,0,1.495.608,2.372,2.372,0,0,0,1.005-.218c.315-.148.5-.36.505-.582a.65.65,0,0,0-.41-.548,10.105,10.105,0,0,0-1.374-.584l-.016-.006C106.945,101.031,106.718,100.947,106.484,100.853Zm33.385.806c-.085,0-.235.153-.379.3-.073.074-.148.15-.213.207l.147.128.3.268.452.4.049-.047.29-.276.2-.188.1-.1c-.084-.067-.165-.139-.244-.208l-.008-.007a2.536,2.536,0,0,0-.671-.475A.046.046,0,0,0,139.869,101.659Zm31.324-1.245a.641.641,0,0,0-.469.189,1.073,1.073,0,0,0-.25.789c.015.973.7,1.5,1.969,1.517.105-.023.214-.041.32-.059l.036-.006a3.217,3.217,0,0,0,.781-.2.6.6,0,0,0,.4-.44.545.545,0,0,0-.289-.472,13.728,13.728,0,0,0-2.022-1.2A1.143,1.143,0,0,0,171.194,100.415Zm-97.575-.005c-.486,0-.8.383-.8.977a1.363,1.363,0,0,0,.327,1.026,2.569,2.569,0,0,0,1.838.455h.059l.175-.019h.007a7.879,7.879,0,0,0,.9-.133,1.322,1.322,0,0,0,.426-.223c.058-.04.124-.086.189-.124-.045-.066-.086-.14-.125-.212l-.006-.01a1.051,1.051,0,0,0-.313-.408c-.622-.384-1.272-.727-1.9-1.06l-.219-.116A1.2,1.2,0,0,0,73.619,100.409Zm90.643-10.425c-.08.083-.162.165-.244.246l-.062.062a10.411,10.411,0,0,0-.736.785.973.973,0,0,0-.106.574,6.215,6.215,0,0,1-1.208,3.466l-.3.462-.069.106c-.484.745-.982,1.512-1.484,2.254-.046.067-.091.135-.136.2l-.007.01a4.221,4.221,0,0,1-.781.961,2.617,2.617,0,0,0-.986,2.066c0,.919.55,1.638,1.25,1.638.845,0,1.358-.592,1.372-1.578a1.243,1.243,0,0,0-.013-.178.567.567,0,0,1,.022-.325c.058-.1.115-.219.17-.33l.012-.023a2.215,2.215,0,0,1,.693-.957,1.06,1.06,0,0,1,.542-.15,1.251,1.251,0,0,1,1.024.592c.16.242.3.5.43.75a6.17,6.17,0,0,0,.629,1.022c.292.36.9,1.108,1.4,1.108a1.821,1.821,0,0,0,1.393-1.089,4.108,4.108,0,0,1,1.32-2.2l.106-.113a1.121,1.121,0,0,0,.072-1.662,20.614,20.614,0,0,1-3.117-5.878q-.148-.372-.3-.741a2.472,2.472,0,0,0-.581-.751C164.468,90.208,164.359,90.1,164.262,89.984ZM65.2,99.124a1.173,1.173,0,0,1,.212.02,1.7,1.7,0,0,1,1.567,1.87,1.949,1.949,0,0,0,.493,1.409,1.213,1.213,0,0,0,.883.378h.015c.739-.009.867-.54.991-1.054a4.143,4.143,0,0,1,.113-.408c.029-.081.058-.173.092-.288l0-.006a2.3,2.3,0,0,1,.428-.907c.955-1.01.959-1.63.019-2.657a9.853,9.853,0,0,1-1.38-1.905c-.446-.815-.852-1.668-1.246-2.493l-.03-.064-.063-.132c-.159-.335-.324-.681-.49-1.02-.183-.374-.436-.58-.713-.58a.917.917,0,0,0-.71.484,2.121,2.121,0,0,0-.151.286l-.006.013-.014.03c-.021.044-.039.084-.059.123-.312.615-.606,1.25-.889,1.863l-.038.083a20.763,20.763,0,0,1-3.082,5.248,1.883,1.883,0,0,0-.31,2.219,2.238,2.238,0,0,0,1.366,1.036.237.237,0,0,0,.039,0c.331,0,.8-.535,1.126-.984a1.629,1.629,0,0,0,.221-.7,3.313,3.313,0,0,1,.089-.434A1.763,1.763,0,0,1,65.2,99.124Zm33.246-8.584c-.088.092-.185.182-.279.269l-.039.036a3.167,3.167,0,0,0-.649.731,3.231,3.231,0,0,0-.27.746l-.006.02a2.772,2.772,0,0,1-.314.81c-.819,1.23-1.7,2.491-2.47,3.6-.636.914-1.206,1.735-1.778,2.576a4.746,4.746,0,0,0-.425.864l-.006.016c-.069.166-.14.335-.223.517.1.169.2.346.29.517l.007.012A4.251,4.251,0,0,0,93,102.33a1.656,1.656,0,0,0,1.2.467,2.882,2.882,0,0,0,.96-.182c.715-.253.753-.941.787-1.549a2.064,2.064,0,0,1,.3-1.035,1.329,1.329,0,0,1,.769-.489.176.176,0,0,1,.071.014,3.308,3.308,0,0,1,2.023,1.769c.222.67.545,1.3,1.394,1.4a.8.8,0,0,0,.089.005,2.052,2.052,0,0,0,1.563-1.392,6.285,6.285,0,0,1,.607-1.189c.632-.97.679-1.759.14-2.345a16.488,16.488,0,0,1-3.562-6.284,1.739,1.739,0,0,0-.574-.687l-.025-.022C98.644,90.727,98.538,90.635,98.449,90.541Zm32.605,8.81a.985.985,0,0,1,.574.185l.074.052a2.865,2.865,0,0,1,1.532,2,1.481,1.481,0,0,0,.432.71,3.988,3.988,0,0,1,.26.317,4.563,4.563,0,0,1,.41-.293c.31-.207.63-.421.715-.7a13.023,13.023,0,0,0,.388-2.144c.039-.311.084-.663.137-1.019-.024-.058-.05-.127-.081-.21l-.007-.019a4.056,4.056,0,0,0-.31-.686c-.24-.4-.5-.789-.747-1.169l-.007-.011-.015-.023c-.408-.623-.829-1.267-1.184-1.932a11.282,11.282,0,0,1-.621-1.51l0-.009c-.134-.375-.272-.762-.436-1.128a2.244,2.244,0,0,0-.477-.609l-.021-.022c-.076-.078-.155-.158-.225-.241-.063.06-.13.118-.2.174l-.024.02a2.3,2.3,0,0,0-.463.478,2.471,2.471,0,0,0-.3.875,7.425,7.425,0,0,1-1.751,3.521c-.513.6-.971,1.266-1.415,1.906l-.287.412a.9.9,0,0,0-.2.62c.04.149.081.3.12.447l.009.034a20.627,20.627,0,0,0,.845,2.653.772.772,0,0,0,.661.559.939.939,0,0,0,.745-.549,3.847,3.847,0,0,0,.371-1.189A1.746,1.746,0,0,1,131.054,99.351Zm63.773-3.2c-.111.053-.228.1-.36.149a1.787,1.787,0,0,0-.725.407,4.785,4.785,0,0,0-.826,1.447,1.119,1.119,0,0,0-.024.909.881.881,0,0,0,.6.439,1.445,1.445,0,0,0,.366.05,1.107,1.107,0,0,0,1.06-.784,6.071,6.071,0,0,0,.249-1.042c.033-.179.069-.378.114-.59l-.091-.194-.179-.386ZM30.43,94.025c.337,0,.61.224.811.665a3.528,3.528,0,0,1,.216.756l0,.01c.025.121.049.239.079.355l-.1.023c0,.064.008.129.011.194l0,.07a3.165,3.165,0,0,0,.058.574,1.2,1.2,0,0,0,1.047,1.033.77.77,0,0,0,.332-.075A2.644,2.644,0,0,0,34.4,93.949c-.411-1.219-.8-2.532-1.227-4.132A1.254,1.254,0,0,0,32,88.752a1.631,1.631,0,0,0-.937.343c-1.478,1.066-2.7,1.889-3.852,2.589a1.105,1.105,0,0,0-.546,1.537,3.114,3.114,0,0,1,.118.875c.006.178.013.35.034.514.011.085.017.175.024.277.022.3.045.615.186.687a.858.858,0,0,0,.385.078,1.455,1.455,0,0,0,.677-.167,7.931,7.931,0,0,0,.976-.7c.214-.169.435-.344.663-.5A1.282,1.282,0,0,1,30.43,94.025Zm165.616,1.629a2.292,2.292,0,0,1,2.027,1.254,1.247,1.247,0,0,0,.965.7c.388,0,.738-.327.96-.9a9.171,9.171,0,0,0,.334-1.155c.034-.144.075-.313.118-.474.172-.65.472-.98.892-.98a1.484,1.484,0,0,1,.79.3,4.448,4.448,0,0,1,.658.579l.019.019a4.786,4.786,0,0,0,.585.522,2.005,2.005,0,0,0,.954.421.458.458,0,0,0,.126-.016,1.274,1.274,0,0,0,.74-.9,2.958,2.958,0,0,1,1.236-2.216.988.988,0,0,0,.311-.78c-.021-.15-.432-.32-.679-.348-2.162-.238-2.212-.283-2.678-2.406a1.264,1.264,0,0,0-1.113-1.084l-.6.23-.6.23-.044.016-.255.1c-1.18.453-2.4.921-3.594,1.4a.92.92,0,0,0-.452.489c-.493,1.3-1.068,2.835-1.6,4.408a.5.5,0,0,0,.03.457.456.456,0,0,0,.392.166,1.11,1.11,0,0,0,.116-.008A3,3,0,0,1,196.046,95.654Zm85.726-72.567v2.43h8.506v-2.43Z" transform="translate(0.498 0.5)" stroke="rgba(0,0,0,0)" stroke-miterlimit="10" stroke-width="1"/>
</svg>
