<svg xmlns="http://www.w3.org/2000/svg" width="301.138" height="147.598" viewBox="0 0 301.138 147.598">
  <path id="Union_394" data-name="Union 394" d="M226.829,145.144a20.08,20.08,0,0,1-6.037-3.641,20.643,20.643,0,0,1-6.8-12.306,2.5,2.5,0,0,1-.249,1.343c-.273.469-1.032.657-1.835.856H211.9l-.017,0h-.006l-.019,0-.025.006-.868,9.369,1.083,3.586h-5.87l.963-3.586-.776-9.42a.652.652,0,0,0-.2-.036h-.027c-.11.01-.213.015-.306.015a1.1,1.1,0,0,1-1.095-.532,3.025,3.025,0,0,1-.206-1.359c0-.343.007-.634.014-.916V128.5c.019-.78.029-1.211-.185-1.435-.2-.206-.587-.243-1.328-.243l-.359,0h-.333l-.51.005-.15,0h-.163a1.537,1.537,0,0,1-.218-.012,3.184,3.184,0,0,0-.379-.029,20.584,20.584,0,0,1-6.2,13.936,20.022,20.022,0,0,1-27.106.873,20.653,20.653,0,0,1-6.864-12.079,2.613,2.613,0,0,1-1.938.482h-.828c-3.22-.006-7.228-.014-11.275-.014-7.27,0-13.194.025-18.643.079h-.124c-1.14,0-1.752-.169-2.111-.582a2.257,2.257,0,0,1-.32-1.818,1.446,1.446,0,0,0-.236-1.156,1.148,1.148,0,0,0-.911-.34,2.537,2.537,0,0,0-.276.016,7.076,7.076,0,0,1-.757.037c-.168,0-.345,0-.558-.012a20.64,20.64,0,0,1-6.03,14.328,20.149,20.149,0,0,1-6.4,4.333,20.05,20.05,0,0,1-14.994.259,20.1,20.1,0,0,1-6.048-3.659,20.677,20.677,0,0,1-6.717-11.962H78.437l-.019,0-1.044,11.265,1.083,3.586h-5.87l.963-3.586-.928-11.267H71.97v-2.885H67.338a20.631,20.631,0,0,1-6.11,14,20.04,20.04,0,0,1-28.45-.191,20.652,20.652,0,0,1-5.932-14.536,20.722,20.722,0,0,1,3.193-11.084v-1.362h-.888a5.019,5.019,0,0,0-.223-1.942,13.231,13.231,0,0,1-.2-4.7v-.008l0-.031v-.014c.038-.524.081-1.118.1-1.683.014-.489.313-1.38.6-1.428,1.027-.175,1.011-.81.994-1.483v-.157c0-.039,0-.079,0-.117,0-1.583,0-3.164,0-4.838V95.146q0-.533,0-1.08h5.883l.037-.558a8.158,8.158,0,0,0-2.231-.221h-.016c-1.446-.01-2.941-.021-4-1.463-.133.062-.276.126-.436.2l-.005,0-.029.013-.079.034-.012.005-.015.006c-.377.167-.732.323-1.079.515-2.136,1.187-3.931,2.094-5.96,2.094a6.406,6.406,0,0,1-2.229-.4l-.29-.105-.132-.048-.007,0h0a23.378,23.378,0,0,1-5.471-2.526,1.574,1.574,0,0,1-.464-1.156L10.1,91.7,0,60.145,182.374,0l10.1,31.551L74.414,70.486A20.808,20.808,0,0,1,78.962,94.2c.595-.006,1.17-.014,1.758-.025h.1a1.635,1.635,0,0,1,1.3.405,1.538,1.538,0,0,1,.23,1.234,1.445,1.445,0,0,0,.216,1.157,1.541,1.541,0,0,0,1.225.38h.086c.553-.01,1.124-.014,1.749-.014,1.182,0,2.413.018,3.312.03h.047l.144,0h.1l.23,0h.022c.991.014,1.765.023,2.554.027.851,0,1.867.007,3.2.007l2.432,0h2.91a2.669,2.669,0,0,1,.237-2.156,2.067,2.067,0,0,1,1.672-.524c.158,0,.322.005.48.01h.167l.319.01c.7.019,1.485.027,2.478.027.646,0,1.35,0,1.757-.007h.556c.436,0,.929-.005,1.42-.005H117.4l.358-1.461.085-.349h10.394l.113.695.062.383.027.172.091.561h17.1c6.14,0,15.374,0,24.648.012.128,0,.264-.009.395-.018h.021c.168-.011.3-.019.428-.019a1.045,1.045,0,0,1,.8.259,1.186,1.186,0,0,1,.188.931,1.58,1.58,0,0,0,.243,1.235c.287.323.79.388,1.507.388h.053c3.585-.012,6.93-.019,9.939-.019,4.784,0,9.679.016,14.547.045h.046a1.528,1.528,0,0,0,1.149-.3,1.661,1.661,0,0,0,.3-1.211c-.03-4.674-.031-9.409-.033-13.989V81.87c0-4.728,0-9.614-.036-14.415a2.105,2.105,0,0,1,.406-1.54,2.007,2.007,0,0,1,1.5-.417h.025c5.809.019,11.766.029,17.707.029,6.553,0,13.012-.013,19.2-.038h.027a1.887,1.887,0,0,1,1.41.39,1.95,1.95,0,0,1,.365,1.449c-.067,4.8-.049,9.668-.031,14.379v.031l.005,1.425a6.77,6.77,0,0,0,.164,1.257l0,.01,0,.015.006.031c.042.21.075.386.1.567l.244,0h.028l.442-.008h.024c.01-.281.022-.562.032-.8l.006-.146,0-.058v-.016l.009-.2c.038-.868.078-1.766.084-2.662V81.1c.015-2.749.015-2.749,2.656-2.762h.018c1.568-.007,3.361-.017,5.328-.029l.58,0h.093l.544,0h.083l1.656-.01h.5c6.138-.037,13.779-.082,21.035-.082h1.232l15.124,1.815a12.812,12.812,0,0,0,1.553.3H292c1.34.2,2.728.415,3.406,1.314L300,113.568c-.414,1.427-1.6,2.595-3.627,3.571-2.962,1.428-6.019,2.932-8.715,4.258l-.139.069-.033.016-.063.031-.015.007-.01,0-.006,0-.042.021,0,0-.051.025c-4.332,2.13-8.808,4.333-13.26,6.426-.816.384-1.616.824-2.391,1.25l-.008,0-.006,0-.017.009c-2.244,1.237-4.565,2.516-7.313,2.516-.164,0-.31,0-.435-.01h-.042a2.733,2.733,0,0,0-1.294.555l0,0-.008,0-.04.025-.02.013-.044.028a14.489,14.489,0,0,1-8,2.249c-.371,0-.75-.012-1.128-.034-.111-.006-.209-.009-.291-.009a4.18,4.18,0,0,0-.678.055,20.512,20.512,0,0,1-7.341,8.517,20.031,20.031,0,0,1-18.149,1.964ZM253.9,131.718c-.142,0-.3.01-.482.029-.19.651-.414,1.3-.668,1.931.566.029,1.236.058,1.9.058a9.9,9.9,0,0,0,6.562-2.023h-3.759C256.043,131.711,254.88,131.713,253.9,131.718ZM24.18,77.9l.659,2.057,24.33-8.023L48.51,69.88ZM21.338,69.97,22,72.028,46.327,64l-.659-2.058Zm37.925-3.857.659,2.057,43.253-14.264-.658-2.058ZM18.5,62.035l.659,2.059,24.33-8.025-.659-2.058Zm37.926-3.857.658,2.058,43.254-14.266-.659-2.057Zm-2.843-7.934.659,2.058L97.49,38.038l-.658-2.058Zm56.139-.721.659,2.058,43.253-14.265-.658-2.058Zm-2.843-7.934.659,2.058,43.253-14.264-.658-2.058Zm-2.842-7.934.658,2.058,43.254-14.264-.659-2.058Z" transform="translate(0.627 0.633)" stroke="rgba(0,0,0,0)" stroke-miterlimit="10" stroke-width="1"/>
</svg>
